<?xml version="1.0" standalone="no"?><svg xmlns="http://www.w3.org/2000/svg" viewBox="0 0 1440 320"><path fill="#F24236" fill-opacity="1" d="M0,224L40,229.3C80,235,160,245,240,213.3C320,181,400,107,480,101.3C560,96,640,160,720,176C800,192,880,160,960,170.7C1040,181,1120,235,1200,213.3C1280,192,1360,96,1400,48L1440,0L1440,320L1400,320C1360,320,1280,320,1200,320C1120,320,1040,320,960,320C880,320,800,320,720,320C640,320,560,320,480,320C400,320,320,320,240,320C160,320,80,320,40,320L0,320Z"></path></svg>